#!OML:ASF I:\Actors\actors\Patient Classification 2\Patient 1\Session 1\actor1.ASF
:FULLY-SPECIFIED
:DEGREES
184
root -0.617814 18.7892 5.44575 5.64156 -1.31789 -1.90435
lowerback 8.79808 1.09629 -1.87936
upperback 2.41089 1.29113 0.135421
thorax -2.47705 0.647262 1.05698
lowerneck -14.7266 -2.21294 -2.18206
upperneck 33.2835 -3.32254 2.09278
head 13.8317 -1.43165 0.688188
rclavicle -5.66536e-015 4.37326e-015
rhumerus -16.5148 41.6807 -73.3544
rradius 103.603
rwrist -52.0452
rhand -4.69892 -34.858
rfingers 7.12502
rthumb 21.0827 -63.7319
lclavicle -5.66536e-015 4.37326e-015
lhumerus -11.2489 -41.7763 71.6804
lradius 96.2407
lwrist 22.3492
lhand -7.54291 -34.6811
lfingers 7.12502
lthumb 18.3486 -5.52643
rfemur 0 0 0
rtibia 0
rfoot 0 0
rtoes 0
lfemur -9.56943 -6.85613 -12.0443
ltibia 21.875
lfoot -23.1495 16.0904
ltoes -53.7727
185
root -0.617626 18.7877 5.46297 5.57927 -1.52278 -1.9317
lowerback 8.47788 1.12111 -1.92536
upperback 2.37072 1.32688 0.136883
thorax -2.3436 0.664466 1.08575
lowerneck -14.4943 -2.09671 -1.83735
upperneck 33.1435 -3.1401 1.75937
head 13.6989 -1.35763 0.526041
rclavicle 3.97569e-016 -4.37326e-015
rhumerus -16.0646 42.5292 -71.9861
rradius 103.938
rwrist -47.9712
rhand -5.84753 -36.2543
rfingers 7.12502
rthumb 19.9789 -65.2472
lclavicle 3.97569e-016 -4.37326e-015
lhumerus -10.6114 -42.7341 69.0966
lradius 96.7637
lwrist 21.6866
lhand -6.44883 -34.6189
lfingers 7.12502
lthumb 19.4009 -5.56676
rfemur 0 0 0
rtibia 0
rfoot 0 0
rtoes 0
lfemur -9.37529 -6.95942 -12.0641
ltibia 21.8771
lfoot -23.3849 16.2888
ltoes -53.6403
186
root -0.614676 18.7857 5.47195 5.5254 -1.65739 -1.95542
lowerback 8.27519 1.11459 -1.92507
upperback 2.31116 1.32185 0.120023
thorax -2.29235 0.662048 1.07171
lowerneck -14.413 -2.04384 -1.60351
upperneck 33.1612 -3.06451 1.55482
head 13.6778 -1.32434 0.416545
rclavicle -4.57205e-015 3.57812e-015
rhumerus -15.5638 43.3672 -70.6683
rradius 104.105
rwrist -43.2495
rhand -7.70475 -37.6287
rfingers 7.12502
rthumb 18.1929 -66.7979
lclavicle -4.57205e-015 3.57812e-015
lhumerus -9.90608 -43.5718 66.6117
lradius 97.0825
lwrist 21.0097
lhand -5.61433 -34.3801
lfingers 7.12502
lthumb 20.2031 -5.41076
rfemur 0 0 0
rtibia 0
rfoot 0 0
rtoes 0
lfemur -9.25753 -7.01999 -12.0814
ltibia 21.8978
lfoot -23.5354 16.3858
ltoes -53.5521
187
root -0.610561 18.7845 5.4788 5.48227 -1.78448 -1.99762
lowerback 8.13216 1.10875 -1.86397
upperback 2.21425 1.32122 0.11041
thorax -2.31166 0.662484 1.02904
lowerneck -14.3721 -2.03612 -1.60311
upperneck 33.335 -3.05082 1.52954
head 13.7443 -1.32173 0.408965
rclavicle -1.38155e-014 5.1684e-015
rhumerus -15.0802 44.1319 -69.4308
rradius 104.138
rwrist -38.0665
rhand -9.77949 -38.9396
rfingers 7.12502
rthumb 16.196 -68.2831
lclavicle -1.38155e-014 5.1684e-015
lhumerus -9.25083 -44.2979 64.3843
lradius 97.2846
lwrist 20.4256
lhand -4.90781 -33.7179
lfingers 7.12502
lthumb 20.882 -4.82182
rfemur 0 0 0
rtibia 0
rfoot 0 0
rtoes 0
lfemur -9.17123 -6.98048 -12.0725
ltibia 21.9185
lfoot -23.6055 16.4148
ltoes -53.5178
188
root -0.607387 18.7832 5.48764 5.43102 -1.90766 -2.00073
lowerback 7.97459 1.11643 -1.8773
upperback 2.11518 1.33348 0.127825
thorax -2.32773 0.669547 1.055
lowerneck -14.1926 -2.02661 -1.73734
upperneck 33.4291 -3.03493 1.62269
head 13.7503 -1.32061 0.47396
rclavicle -1.83876e-014 -2.78299e-015
rhumerus -14.6045 44.7717 -68.2625
rradius 104.063
rwrist -32.3712
rhand -11.5865 -39.8421
rfingers 7.12502
rthumb 14.4555 -69.3186
lclavicle -1.83876e-014 -2.78299e-015
lhumerus -8.66774 -44.9458 62.4409
lradius 97.3654
lwrist 19.9276
lhand -4.06848 -33.1751
lfingers 7.12502
lthumb 21.6882 -4.3699
rfemur 0 0 0
rtibia 0
rfoot 0 0
rtoes 0
lfemur -9.06534 -6.94848 -12.103
ltibia 21.9402
lfoot -23.6945 16.4156
ltoes -53.3982
189
root -0.606291 18.7806 5.49663 5.33199 -1.962 -1.98065
lowerback 7.84365 1.11194 -1.95204
upperback 2.05821 1.3243 0.137657
thorax -2.31547 0.665645 1.10976
lowerneck -13.9653 -2.03262 -1.72863
upperneck 33.4004 -3.03977 1.59392
head 13.6866 -1.3279 0.462452
rclavicle 8.15017e-015 5.56597e-015
rhumerus -14.1229 45.2285 -67.2685
rradius 103.891
rwrist -26.2194
rhand -12.6635 -40.3312
rfingers 7.12502
rthumb 13.4175 -69.879
lclavicle 8.15017e-015 5.56597e-015
lhumerus -8.07034 -45.5138 60.6801
lradius 97.2633
lwrist 19.3106
lhand -3.51466 -33.0336
lfingers 7.12502
lthumb 22.22 -4.29081
rfemur 0 0 0
rtibia 0
rfoot 0 0
rtoes 0
lfemur -8.91423 -6.92727 -12.1514
ltibia 21.9548
lfoot -23.7501 16.3566
ltoes -53.3078
190
root -0.606449 18.778 5.50495 5.22033 -1.95279 -1.95498
lowerback 7.72026 1.10793 -2.02017
upperback 2.03492 1.31627 0.135039
thorax -2.27216 0.661761 1.14806
lowerneck -14.2382 -2.14675 -2.44348
upperneck 33.9672 -3.29764 2.41813
head 14.0396 -1.41479 0.876222
rclavicle 6.85807e-015 -7.15625e-015
rhumerus -13.655 45.4879 -66.442
rradius 103.594
rwrist -20.2457
rhand -12.7735 -40.4084
rfingers 7.12502
rthumb 13.3116 -69.9632
lclavicle 6.85807e-015 -7.15625e-015
lhumerus -7.38678 -46.0384 59.1457
lradius 96.9743
lwrist 18.5575
lhand -3.33036 -33.1034
lfingers 7.12502
lthumb 22.3969 -4.38176
rfemur 0 0 0
rtibia 0
rfoot 0 0
rtoes 0
lfemur -8.76406 -6.8418 -12.1952
ltibia 21.9505
lfoot -23.7203 16.2669
ltoes -53.3607
191
root -0.606242 18.7757 5.51069 5.13618 -1.92527 -1.9376
lowerback 7.59003 1.10777 -2.06537
upperback 2.01158 1.3158 0.145208
thorax -2.22515 0.66152 1.18604
lowerneck -14.2948 -2.22532 -2.78733
upperneck 34.2233 -3.43346 2.74362
head 14.1881 -1.47217 1.04778
rclavicle -1.36167e-014 -6.75868e-015
rhumerus -13.2396 45.7221 -65.7566
rradius 103.14
rwrist -15.1677
rhand -12.9121 -39.9595
rfingers 7.12502
rthumb 13.1779 -69.523
lclavicle -1.36167e-014 -6.75868e-015
lhumerus -6.81074 -46.5392 58.0299
lradius 96.6006
lwrist 18.1135
lhand -3.5287 -32.9898
lfingers 7.12502
lthumb 22.2065 -4.24544
rfemur 0 0 0
rtibia 0
rfoot 0 0
rtoes 0
lfemur -8.66001 -6.71492 -12.2209
ltibia 21.9379
lfoot -23.6576 16.1493
ltoes -53.4484
